<?xml version="1.0" encoding="utf-8"?>
<svg height="65px" id="a" viewBox="0 0 3233.44 850.39" xmlns="http://www.w3.org/2000/svg"><rect fill="#271e3d" height="847.08" width="10.48" x="1885.67"/><path d="M2480.78,330.99l-3.77-1.05-2.1-17.19,2.1-2.1c14.95-4.33,31.23-10.27,48.84-17.82,25.99-11.04,42.69-18.45,50.1-22.22l5.45,2.1c-2.24,64.01-3.35,100.76-3.35,110.26v77.77c0,31.02.35,54.5,1.05,70.43.42,9.37,1.57,15.27,3.46,17.71,1.88,2.44,4.68,4.19,8.38,5.24,3.7,1.05,15.82,1.99,36.37,2.83v12.79c-35.36-1.12-57.51-1.68-66.45-1.68-6.71,0-30.39.56-71.06,1.68v-12.79c21.24-1.26,33.5-2.27,36.79-3.04,3.28-.77,5.73-1.92,7.34-3.46,1.6-1.54,2.76-3.7,3.46-6.5,1.12-4.33,2.1-16.8,2.94-37.42.84-20.61,1.26-36.23,1.26-46.85v-82.59c0-33.68-.07-54.78-.21-63.3,0-3.77-.49-6.15-1.47-7.13-.56-.56-1.33-.84-2.31-.84-1.26,0-4.47,1.12-9.64,3.35-23.76,10.62-39.48,17.89-47.16,21.8Z" fill="#271e3d"/><path d="M2655.17,569.74v-3.98c25.16-6.01,47.34-15.55,66.56-28.61,19.21-13.07,34.48-30.78,45.8-53.14,8.94-17.61,14.53-38.15,16.77-61.63-6.29,4.33-13.7,10.27-22.22,17.82-5.03,4.61-8.87,7.69-11.53,9.22-4.05,2.66-8.67,4.75-13.83,6.29-6.71,1.96-13.98,2.94-21.8,2.94-22.36,0-40.74-7.55-55.13-22.64-14.4-15.09-21.59-35.77-21.59-62.05,0-29.9,9.01-54.11,27.04-72.63,18.03-18.52,40.74-27.77,68.13-27.77,17.47,0,33.12,4.3,46.95,12.89,13.84,8.59,24.7,21.14,32.6,37.63,7.9,16.49,11.84,37.87,11.84,64.14,0,32.42-5.94,60.79-17.82,85.1-14.4,29.63-35.71,54.01-63.93,73.16-23.62,16.07-48.28,26.06-74,29.98l-13.84-6.71ZM2674.46,360.34c0,11.88,2.06,23.72,6.18,35.53,4.12,11.81,10.66,20.89,19.6,27.25,8.94,6.36,19.35,9.54,31.23,9.54,16.35,0,29.59-5.52,39.72-16.56,10.13-11.04,15.2-27.67,15.2-49.89s-4.79-40.46-14.36-55.55c-9.57-15.09-23.51-22.64-41.82-22.64-15.93,0-29.21,6.05-39.83,18.13-10.62,12.09-15.93,30.15-15.93,54.18Z" fill="#271e3d"/><path d="M2898.92,569.74v-12.16c21.8-.42,34.59-1.02,38.36-1.79,3.77-.77,6.43-2,7.97-3.68,1.95-2.38,3.35-6.66,4.19-12.83,1.26-10.37,1.89-21.09,1.89-32.17v-15.56h-45.91c-25.29,0-47.86.42-67.7,1.26l-3.57-11.32c10.76-20.26,25.16-45.07,43.18-74.41,26.27-42.76,52.47-83.91,78.61-123.46,1.54-.7,5.31-2.3,11.32-4.82,10.62-4.19,16.7-6.57,18.24-7.13l5.24,2.52c-.98,16.77-1.61,37.45-1.89,62.05-.7,51.85-1.05,80.28-1.05,85.31v43.39c19.01-.14,34.59-.63,46.74-1.47-.42,6.99-.63,11.6-.63,13.83l.63,15.51c-14.25-.84-26.27-1.26-36.05-1.26h-10.69v14.09c0,23.55,1.05,37.92,3.15,43.11.84,2.1,2.51,3.79,5.03,5.05,5.31,2.39,18.17,3.65,38.57,3.79v12.16c-30.18-1.12-53.38-1.68-69.59-1.68-17.47,0-39.48.56-66.03,1.68ZM2861.82,464.94h89.51l1.88-149.03c-15.23,21.94-32.46,48.77-51.67,80.49-19.22,31.72-32.46,54.57-39.72,68.54Z" fill="#271e3d"/><path d="M3063.86,569.74v-3.98c25.16-6.01,47.34-15.55,66.56-28.61,19.21-13.07,34.48-30.78,45.8-53.14,8.94-17.61,14.53-38.15,16.77-61.63-6.29,4.33-13.7,10.27-22.22,17.82-5.03,4.61-8.87,7.69-11.53,9.22-4.05,2.66-8.67,4.75-13.83,6.29-6.71,1.96-13.98,2.94-21.8,2.94-22.36,0-40.74-7.55-55.13-22.64-14.4-15.09-21.59-35.77-21.59-62.05,0-29.9,9.01-54.11,27.04-72.63,18.03-18.52,40.74-27.77,68.13-27.77,17.47,0,33.12,4.3,46.95,12.89,13.84,8.59,24.7,21.14,32.6,37.63,7.9,16.49,11.84,37.87,11.84,64.14,0,32.42-5.94,60.79-17.82,85.1-14.4,29.63-35.71,54.01-63.93,73.16-23.62,16.07-48.28,26.06-74,29.98l-13.84-6.71ZM3083.14,360.34c0,11.88,2.06,23.72,6.18,35.53,4.12,11.81,10.66,20.89,19.6,27.25,8.94,6.36,19.35,9.54,31.23,9.54,16.35,0,29.59-5.52,39.72-16.56,10.13-11.04,15.2-27.67,15.2-49.89s-4.79-40.46-14.36-55.55c-9.57-15.09-23.51-22.64-41.82-22.64-15.93,0-29.21,6.05-39.83,18.13-10.62,12.09-15.93,30.15-15.93,54.18Z" fill="#271e3d"/><path d="M222.06,575.29l-95.84-128.16,67.84-64.68c18.54-17.57,34.31-30.34,61.92-41.12v-.8h-78.49v.8c9.47,4.39,14.59,11.18,14.59,18.76,0,6.39-3.94,13.57-11.04,20.36l-111.23,107.4v-97.02c0-26.35,3.94-40.32,22.48-49.51v-.8H0v.8c18.54,9.18,22.48,23.16,22.48,49.51v178.86c0,26.35-3.94,40.32-22.48,49.51v.8h92.29v-.8c-18.54-9.18-22.48-23.16-22.48-49.51v-68.67l22.88-22.36,76.12,101.41c7.1,9.98,11.04,15.97,11.04,23.56,0,7.98-2.76,11.58-10.25,15.57v.8h100.58v-.8c-16.17-7.59-32.74-23.56-48.12-43.92Z" fill="#271e3d"/><path d="M401.93,601.24c-42.6,0-68.63-35.13-68.63-87.04h134.1c0-54.3-26.43-93.43-85.2-93.43-51.67,0-95.45,41.12-95.45,101.81,0,64.28,43.78,101.41,96.24,101.41,43.78,0,76.13-23.95,84.8-66.68l-2.76-1.2c-11.44,30.74-35.5,45.11-63.11,45.11ZM381.82,428.36c32.74,0,39.05,35.53,39.05,77.45h-86.77c1.58-47.11,22.09-77.45,47.72-77.45Z" fill="#271e3d"/><path d="M640.42,601.24c-42.6,0-68.63-35.13-68.63-87.04h134.1c0-54.3-26.43-93.43-85.2-93.43-51.67,0-95.45,41.12-95.45,101.81,0,64.28,43.78,101.41,96.24,101.41,43.78,0,76.13-23.95,84.8-66.68l-2.76-1.2c-11.44,30.74-35.5,45.11-63.11,45.11ZM620.3,428.36c32.74,0,39.05,35.53,39.05,77.45h-86.77c1.58-47.11,22.09-77.45,47.72-77.45Z" fill="#271e3d"/><path d="M824.37,576.48v-255.52h-69.81v.8c18.54,8.38,24.06,18.76,24.06,43.12v211.6c0,26.35-2.76,33.94-21.3,42.72v.8h88.35v-.8c-18.54-8.78-21.3-16.37-21.3-42.72Z" fill="#271e3d"/><path d="M1069.63,556.12c-11.44,30.74-35.5,45.11-63.11,45.11-42.6,0-68.63-35.13-68.63-87.04h134.1c0-54.3-26.43-93.43-85.2-93.43-51.67,0-95.45,41.12-95.45,101.81,0,64.28,43.78,101.41,96.24,101.41,43.78,0,76.13-23.95,84.8-66.68l-2.76-1.2ZM986.4,428.36c32.74,0,39.05,35.53,39.05,77.45h-86.77c1.58-47.11,22.09-77.45,47.72-77.45Z" fill="#271e3d"/><path d="M73.79,801.64c0,5.62-.55,10.44-1.66,14.46-1.1,4.02-2.57,7.41-4.39,10.16-1.82,2.75-3.86,4.93-6.12,6.52-2.26,1.6-4.52,2.84-6.78,3.72-2.26.88-4.47,1.46-6.62,1.73-2.15.28-3.94.41-5.38.41-1.55,0-3.37-.14-5.46-.41-2.1-.27-4.28-.85-6.54-1.73-2.26-.88-4.52-2.12-6.78-3.72-2.26-1.59-4.3-3.77-6.12-6.52-1.82-2.75-3.28-6.14-4.39-10.16-1.1-4.02-1.65-8.84-1.65-14.46v-72.04H0v73.36c0,4.85.58,9.99,1.74,15.45,1.16,5.45,3.33,10.49,6.53,15.12,3.2,4.63,7.56,8.46,13.07,11.48,5.51,3.03,12.68,4.54,21.51,4.54s15.85-1.51,21.43-4.54c5.57-3.03,9.95-6.86,13.15-11.48,3.2-4.63,5.38-9.67,6.53-15.12,1.16-5.45,1.74-10.6,1.74-15.45v-73.36h-11.91v72.04Z" fill="#271e3d"/><path d="M285.81,824.75l-63.87-95.14h-13.57v118.31h13.57c0-31.6-.17-63.21-.33-94.64l63.87,94.81h13.73v-118.47h-13.57l.17,95.14Z" fill="#271e3d"/><rect fill="#271e3d" height="118.31" width="14.06" x="413.37" y="729.61"/><polygon fill="#271e3d" points="583.79 831.86 547.88 729.61 532.99 729.61 575.18 848.74 591.73 848.74 634.92 729.61 619.69 729.61 583.79 831.86"/><polygon fill="#271e3d" points="754.36 794.14 797.88 794.14 797.88 782.39 754.36 782.39 754.36 741.69 806.98 741.69 806.98 729.61 740.3 729.61 740.3 847.91 808.64 847.91 809.63 835.83 754.36 835.83 754.36 794.14"/><path d="M994.72,786.86c4.47-5.46,7.11-13.07,7.11-22.17,0-12.58-4.96-21.84-12.57-27.96-8.27-6.78-19.86-9.6-33.76-9.6-10.42,0-25.31,1.32-32.1,2.48v118.31h14.06v-44.68h11.09c4.47,0,8.6-.17,12.41-.66l27.3,45.34h15.88l-29.45-48.65c8.11-2.48,15.22-6.45,20.02-12.41ZM948.73,791.99h-11.25v-51.79c5.29-.83,13.07-1.49,18.53-1.49,8.27,0,16.38,1.82,22.17,6.29,5.46,4.14,8.77,10.76,8.77,20.19,0,8.27-2.65,13.9-6.78,17.87-7.94,7.44-20.85,8.93-31.44,8.93Z" fill="#271e3d"/><path d="M1171.25,790.83c-10.42-7.78-23.83-9.6-34.91-15.06-8.11-3.81-14.23-8.77-14.23-17.54,0-12.57,9.76-19.36,26.64-19.36,9.1,0,18.2,1.99,25.81,5.29l1.32-11.91c-7.78-3.31-16.05-5.13-27.47-5.13-23.33,0-40.21,11.25-40.21,31.6,0,12.74,5.79,20.02,13.9,25.15,12.41,8.11,27.3,9.43,38.06,17.04,5.46,3.81,8.77,8.93,8.77,16.38,0,14.4-12.91,21.34-33.26,21.34-11.09,0-20.19-1.82-28.62-4.96l-1.32,12.08c9.1,3.31,19.03,4.63,30.94,4.63,24.16,0,46.83-9.93,46.83-34.75,0-11.91-4.8-19.19-12.24-24.82Z" fill="#271e3d"/><rect fill="#271e3d" height="118.31" width="14.06" x="1290.53" y="729.61"/><polygon fill="#271e3d" points="1408.5 742.35 1445.07 742.35 1445.07 847.91 1459.13 847.91 1459.13 742.35 1496.03 742.35 1497.02 729.61 1408.5 729.61 1408.5 742.35"/><polygon fill="#271e3d" points="1657.79 729.61 1625.35 788.51 1594.25 729.61 1577.87 729.61 1617.91 802.08 1617.91 847.91 1631.97 847.91 1631.97 801.58 1673.67 729.61 1657.79 729.61"/><path d="M1230.38.8v521.85l221.77,101.31,221.52-101.31V.79h-443.29ZM1608.08,45.88l7.47,7.49-8.54,8.55-7.49-7.47,8.56-8.56ZM1583.03,43.21l35.37,35.36-11.56,11.57-7.57-7.59,3.98-3.98-20.22-20.19-3.98,3.97-7.58-7.58,11.56-11.56ZM1592.9,81.07l19.05,19.06-7.47,7.49-19.09-19.06,7.51-7.49ZM1579.21,89.72l-7.5-7.47,15.24-15.23,7.46,7.51-15.2,15.18ZM1561.17,49.33l19.06,19.06-7.5,7.49-19.06-19.06,7.5-7.49ZM1559.12,67.14l7.6,7.55-3.87,3.87,20.18,20.24,3.88-3.9,7.57,7.6-11.45,11.43-35.36-35.38,11.44-11.43ZM1566.32,102.65l-8.34,8.34-7.47-7.5,8.33-8.35,7.48,7.51ZM1500.54,38.61l8.81,8.82-10.02,10.04c-2.54-1.69-6.58-4.04-11.64-5.98l12.85-12.88ZM1483.85,54.64c3.16,1.29,9.14,3.88,13.23,6.71,9.23,7.21,13.25,14.71,13.25,24.91,0,17.79-14.49,32.28-32.26,32.28-8.42,0-16.32-3.23-22.37-9.08l8.83-8.81c3.71,3.46,8.47,5.4,13.54,5.4,10.87,0,19.76-8.87,19.76-19.79,0-5.4-1.67-9.14-6.1-13.15-.33-.34-.7-.75-1.16-1.12-.44-.36-.99-.75-1.56-1.13-.03-.04-.09-.08-.09-.08-.02-.04-.22-.12-.22-.12-4.1-2.72-10.18-4.83-14.13-6.07v-.02c-.37-.1-.76-.22-1.16-.3-1.25-.37-2.17-.65-2.54-.71-9.61-2.48-22.4-3.84-36.96-.57l-10.07-10.08c25.27-6.91,47.29-3.12,60.01,1.72ZM1405.01,41.2l13.4,13.38h.04l9.85,9.83-.04.02,19.03,18.99-8.62,9.05-23.09-23.12-.02.04-9.21-9.18h.04s-10.18-10.19-10.18-10.19l8.8-8.82ZM1402.38,63.27l8.86,8.84c-4.02,3.31-6.03,8.02-6.03,14.15,0,10.91,8.84,19.79,19.74,19.79,5.31,0,10.26-2.06,13.99-5.8l3.75-3.74v-.02l8.82-8.82h0s18.69-18.64,18.69-18.64c6.31,1.71,10.61,3.75,12.76,4.85l-22.64,22.63.05.04-8.79,8.82-.07-.05-3.75,3.74c-6.1,6.09-14.16,9.48-22.81,9.48-17.76,0-32.24-14.49-32.24-32.28,0-9.51,3.43-17.38,9.67-22.99ZM1342.99,61.19l15.28,19.51-19.37.8-4.1-5.54-4.99,15.6h-4.41l6.9-25.48,10.68-4.89ZM1309.38,111.91l8.09-8.08h8.21l7.95,7.97h-9.23v5.66l-2.75,4.22-3.53-4.84v-4.93h-8.75ZM1330.89,101.96h-18.89l-4.38-4.01,4.21-4.18h19.28l4.19,4-4.4,4.19ZM1321.9,35.47l9.86,15.1-8.31,40.98-4.18.02-7.66-41.23,10.29-14.86ZM1299.77,61.19l10.68,4.89,6.9,25.48h-4.38l-5.02-15.6-4.1,5.54-19.34-.8,15.27-19.51ZM1245.84,138.1l190.66,87.03-190.66,85.11v-172.14ZM1452.15,606.97l-206.28-94.29v-186.07l410.05,187.35-203.77,93.01ZM1658.25,498.39l-187.33-85.51,187.33-83.63v169.14ZM1452.66,404.66l-188.28-86.1,393.87-176.26.03,170.68-205.62,91.68Z" fill="#271e3d"/><path d="M1512.16,279.1l-3.04-.23c-.12,0-12.11-.93-30.02-4.93-11.89-2.67-21.49-1.77-27.39,2.75-6.05-4.59-14.58-5.51-26.58-2.82-17.93,4-29.9,4.92-30.02,4.93l-3.05.23-9.65,60.64h0s1.53,6.73,1.53,6.73h136.33l1.53-6.67h0s-9.65-60.63-9.65-60.63ZM1508.17,331.58c-7.42-.47-20.02-3.22-30.15-5.42l-.32-.07c-2.16-.47-4.22-.92-6.13-1.32-1.79-.38-3.6-.57-5.39-.57-6.39,0-11.86,2.57-14.6,4.37-3.65-2.48-9.86-5.8-18.95-3.87-2.06.43-4.29.92-6.76,1.46-10.02,2.18-22.5,4.9-29.84,5.36l-4.61.29,7.33-46.04c4.56-.5,14.7-1.81,28.14-4.81,11.01-2.47,15.34-1.89,20.64,2.4l4.17,4.29,3.68-3.52c4.33-4.38,10.82-5.59,21.95-3.09,13.45,3,23.57,4.31,28.13,4.81l7.32,46.04-4.61-.29Z" fill="#271e3d"/><path d="M1453.38,481.51c9.45.17,13.53.38,15.02.48,1.54-7.5,1.8-13.2,1.8-13.2h.41s-25.96-.4-41.03,6.54c-15.04,6.97-25.88,18.72-25.88,18.72,0,0,14.17-13.25,49.68-12.54" fill="#271e3d"/><path d="M1488.2,468.8s-.02,4.67-2.59,18.02c-2.74,14.59-12.89,27.9-24.04,46.22-13.92,22.86-14.1,45.93-14.1,45.93l-12.15.19s-.61-9.93,4.34-26.53c5.17-17.18,16.8-33.94,26.1-47.62,9.71-14.34,10.72-36.21,10.72-36.21h11.71Z" fill="#271e3d"/><path d="M2376.39,483.46h21.23v-100.32h38.01v-19.52h-97.24v19.52h38.01v100.32ZM2272.14,485.17c25.17,0,42.8-13.36,42.8-35.78v-.34c0-19.86-13.01-28.94-38.35-35.09-23.11-5.48-28.59-9.59-28.59-18.83v-.35c0-7.87,7.2-14.21,19.52-14.21,10.95,0,21.74,4.28,32.53,12.33l11.3-15.92c-12.16-9.76-26.02-15.07-43.48-15.07-23.8,0-40.92,14.22-40.92,34.76v.34c0,22.09,14.39,29.62,39.89,35.78,22.26,5.14,27.05,9.75,27.05,18.31v.34c0,8.91-8.22,15.07-21.23,15.07-14.73,0-26.37-5.65-37.84-15.58l-12.67,15.07c14.39,12.84,31.68,19.17,49.99,19.17M2106.73,483.46h89.71v-18.83h-68.65v-32.19h60.09v-18.83h-60.09v-31.16h67.8v-18.83h-88.86v119.85Z" fill="#271e3d"/></svg>